<svg width="36" height="37" viewBox="0 0 36 37" fill="none" xmlns="http://www.w3.org/2000/svg">
<path fill-rule="evenodd" clip-rule="evenodd" d="M22.7682 7.73144C22.7682 10.9976 25.4198 13.6454 28.6907 13.6454C29.0509 13.6436 29.4102 13.609 29.764 13.5421V25.2666C29.764 30.1992 26.8545 33.1174 21.9147 33.1174H11.1558C6.20302 33.1174 3.29346 30.1992 3.29346 25.2666V14.5234C3.29346 9.59084 6.20302 6.64679 11.1558 6.64679H22.8716C22.8021 7.00415 22.7674 7.3674 22.7682 7.73144ZM19.6904 22.6712L23.8931 17.2479V17.2221C24.2529 16.7387 24.1611 16.0569 23.6862 15.6855C23.4564 15.5081 23.1643 15.4313 22.8767 15.4727C22.5892 15.514 22.3307 15.67 22.1603 15.905L18.6171 20.4631L14.5825 17.2867C14.3522 17.1072 14.0591 17.028 13.7696 17.0669C13.48 17.1057 13.2184 17.2594 13.0437 17.4933L8.69873 23.0973C8.546 23.2877 8.46378 23.5248 8.46596 23.7687C8.44075 24.2617 8.75204 24.7095 9.22337 24.8583C9.6947 25.0071 10.2072 24.8193 10.4703 24.4015L14.1041 19.7013L18.1387 22.8649C18.3681 23.0499 18.6631 23.1337 18.9557 23.0972C19.2484 23.0607 19.5136 22.9069 19.6904 22.6712Z" fill="white"/>
<ellipse opacity="0.4" cx="29.0285" cy="7.3821" rx="3.67647" ry="3.67647" fill="white"/>
</svg>
