<svg width="37" height="37" viewBox="0 0 37 37" fill="none" xmlns="http://www.w3.org/2000/svg">
<path fill-rule="evenodd" clip-rule="evenodd" d="M5.30297 24.7567L6.4337 15.6469C7.12253 12.3963 9.07207 11.0586 10.9306 11.0586H25.8641C27.7486 11.0586 29.7631 12.3027 30.348 15.6469L31.4917 24.7567C32.4275 31.4453 28.9833 33.1174 24.4864 33.1174H12.2953C7.81137 33.1174 4.47116 30.6962 5.30297 24.7567ZM22.6799 18.63C23.3977 18.63 23.9796 18.0311 23.9796 17.2923C23.9796 16.5535 23.3977 15.9546 22.6799 15.9546C21.9621 15.9546 21.3802 16.5535 21.3802 17.2923C21.3802 18.0311 21.9621 18.63 22.6799 18.63ZM15.4666 17.2923C15.4666 18.0311 14.8847 18.63 14.1669 18.63C13.4491 18.63 12.8672 18.0311 12.8672 17.2923C12.8672 16.5535 13.4491 15.9546 14.1669 15.9546C14.8847 15.9546 15.4666 16.5535 15.4666 17.2923Z" fill="white"/>
<path opacity="0.4" d="M11.0962 10.7267C11.0916 10.8408 11.1135 10.9543 11.1603 11.0586H13.2737C13.3146 10.9526 13.3363 10.8402 13.3377 10.7267C13.3377 7.90684 15.6315 5.6209 18.4611 5.6209C21.2907 5.6209 23.5845 7.90684 23.5845 10.7267C23.5651 10.8365 23.5651 10.9488 23.5845 11.0586H25.7491C25.7685 10.9488 25.7685 10.8365 25.7491 10.7267C25.5847 6.80255 22.3446 3.70563 18.4035 3.70563C14.4624 3.70563 11.2223 6.80255 11.0578 10.7267H11.0962Z" fill="white"/>
</svg>
