<svg width="60" height="60" viewBox="0 0 60 60" fill="none" xmlns="http://www.w3.org/2000/svg">
<path d="M14.7641 19.4531V24.853C13.5851 25.2636 12.6142 26.1272 12.0684 27.2946L9.75256 32.2601C8.259 35.4649 8.98029 39.2521 11.5478 41.6838L18.2797 48.0578V58.8281C18.2797 59.4754 18.8045 60 19.4516 60H24.725C25.3721 60 25.8969 59.4754 25.8969 58.8281C25.8969 58.1809 25.3721 57.6562 24.725 57.6562H20.6235V47.5535C20.6235 47.2316 20.491 46.9239 20.2572 46.7026L13.1594 39.982C11.3254 38.245 10.8101 35.5396 11.8769 33.2504L14.1921 28.2863C14.754 27.0844 16.1583 26.6149 17.3075 27.1515L28.884 32.5492C27.2615 34.7402 24.2635 35.5675 21.6989 34.372L18.5126 32.8861C17.9259 32.6123 17.2286 32.8664 16.9552 33.4528C16.6816 34.0393 16.9354 34.7366 17.522 35.0102L20.7084 36.4963C22.0146 37.1052 23.4821 37.3763 24.9978 37.2207C27.4706 39.8923 28.8266 43.3446 28.8266 47.0062C28.8266 47.6535 29.3513 48.1781 29.9985 48.1781C30.6456 48.1781 31.1703 47.6535 31.1703 47.0062C31.1703 43.1587 29.8823 39.5101 27.512 36.5504C29.2572 35.7741 30.7413 34.3902 31.61 32.5274C31.6105 32.5264 31.6107 32.5255 31.6112 32.5246C32.1933 32.7841 32.8367 32.9297 33.5141 32.9297C34.5603 32.9297 35.5276 32.5849 36.3084 32.0032C37.061 33.5885 38.677 34.6875 40.5453 34.6875C41.2671 34.6875 41.9511 34.5232 42.5624 34.2306C42.2392 36.3343 41.7156 38.2526 41.1727 40.2377C40.2882 43.4727 39.3735 46.8178 39.3735 51.0938V57.6562H35.2719C34.6248 57.6562 34.1 58.1809 34.1 58.8281C34.1 59.4754 34.6248 60 35.2719 60H40.5453C41.1924 60 41.7172 59.4754 41.7172 58.8281V51.0938C41.7172 47.1326 42.5509 44.0837 43.4335 40.856C44.3181 37.6211 45.2328 34.2759 45.2328 30V22.9688C45.2328 20.3841 43.13 18.2812 40.5453 18.2812C39.4991 18.2812 38.5318 18.626 37.751 19.2077C36.9984 17.6224 35.3824 16.5234 33.5141 16.5234C32.4678 16.5234 31.5006 16.8682 30.7197 17.4499C29.9672 15.8646 28.3511 14.7656 26.4828 14.7656C25.0838 14.7656 23.8268 15.3825 22.9672 16.3576C22.1076 15.3825 20.8506 14.7656 19.4516 14.7656C16.8669 14.7656 14.7641 16.8684 14.7641 19.4531ZM38.2016 22.9688C38.2016 21.6764 39.253 20.625 40.5453 20.625C41.8377 20.625 42.8891 21.6764 42.8891 22.9688V30C42.8891 31.2923 41.8377 32.3438 40.5453 32.3438C39.253 32.3438 38.2016 31.2923 38.2016 30V22.9688ZM31.1703 21.2109C31.1703 19.9186 32.2217 18.8672 33.5141 18.8672C34.8064 18.8672 35.8578 19.9186 35.8578 21.2109V28.2422C35.8578 29.5345 34.8064 30.5859 33.5141 30.5859C32.2217 30.5859 31.1703 29.5345 31.1703 28.2422V21.2109ZM24.1391 19.4531C24.1391 18.1608 25.1905 17.1094 26.4828 17.1094C27.7752 17.1094 28.8266 18.1608 28.8266 19.4531V28.2422C28.8266 28.9097 28.9678 29.5446 29.2204 30.12L24.1391 27.7508V19.4531ZM17.1078 19.4531C17.1078 18.1608 18.1592 17.1094 19.4516 17.1094C20.7439 17.1094 21.7953 18.1608 21.7953 19.4531V26.658L18.2986 25.0277C17.9179 24.85 17.5173 24.7257 17.1078 24.6554V19.4531Z" fill="#EF7D30"/>
<path d="M31.1709 5.39062V1.17188C31.1709 0.524648 30.6461 0 29.999 0C29.3519 0 28.8271 0.524648 28.8271 1.17188V5.39062C28.8271 6.03785 29.3519 6.5625 29.999 6.5625C30.6461 6.5625 31.1709 6.03785 31.1709 5.39062Z" fill="#EF7D30"/>
<path d="M20.0372 9.23287C20.5977 8.90931 20.7899 8.19271 20.4663 7.63208L18.7085 4.58638C18.385 4.02575 17.6683 3.83357 17.1078 4.15712C16.5472 4.48068 16.3551 5.19728 16.6786 5.7579L18.4364 8.80361C18.7589 9.36247 19.4752 9.55736 20.0372 9.23287Z" fill="#EF7D30"/>
<path d="M10.5595 14.9228L7.51377 13.165C6.95267 12.8413 6.2363 13.0336 5.91298 13.5942C5.58943 14.1548 5.78162 14.8715 6.34212 15.195L9.38783 16.9528C9.94599 17.2749 10.6638 17.0867 10.9886 16.5236C11.3122 15.963 11.12 15.2464 10.5595 14.9228Z" fill="#EF7D30"/>
<path d="M41.5601 8.80265L43.3179 5.75695C43.6415 5.19644 43.4493 4.47973 42.8888 4.15617C42.3278 3.8325 41.6115 4.02492 41.288 4.58543L39.5302 7.63113C39.2066 8.19164 39.3988 8.90835 39.9593 9.23191C40.5176 9.55382 41.2351 9.36562 41.5601 8.80265Z" fill="#EF7D30"/>
<path d="M50.6095 16.9528L53.6552 15.195C54.2157 14.8714 54.4079 14.1548 54.0843 13.5942C53.7607 13.0337 53.0442 12.8413 52.4835 13.165L49.4378 14.9228C48.8773 15.2463 48.6851 15.9629 49.0087 16.5236C49.3312 17.0824 50.0474 17.2773 50.6095 16.9528Z" fill="#EF7D30"/>
<path d="M29.999 60C30.6462 60 31.1709 59.4753 31.1709 58.8281C31.1709 58.1809 30.6462 57.6562 29.999 57.6562C29.3518 57.6562 28.8271 58.1809 28.8271 58.8281C28.8271 59.4753 29.3518 60 29.999 60Z" fill="#EF7D30"/>
</svg>
