<svg width="24" height="24" viewBox="0 0 24 24" fill="none" xmlns="http://www.w3.org/2000/svg">
<g clip-path="url(#clip0)">
<path d="M11.053 16.2778C11.2359 16.0945 11.2359 15.7979 11.053 15.6146C10.8699 15.4319 10.5733 15.4319 10.39 15.6146C10.2072 15.7979 10.2072 16.0945 10.39 16.2778C10.5733 16.4605 10.8699 16.4605 11.053 16.2778Z" fill="#EF7D30"/>
<path d="M8.8335 5.15479C8.8335 7.99713 11.1459 10.3098 13.9883 10.3098C16.8306 10.3098 19.1431 7.99713 19.1431 5.15479C19.1431 2.31244 16.8306 0 13.9883 0C11.1459 0 8.8335 2.31244 8.8335 5.15479ZM18.2059 5.15479C18.2059 7.48041 16.3139 9.37244 13.9883 9.37244C11.6627 9.37244 9.77063 7.48041 9.77063 5.15479C9.77063 2.82935 11.6627 0.937317 13.9883 0.937317C16.3139 0.937317 18.2059 2.82935 18.2059 5.15479Z" fill="#EF7D30"/>
<path d="M5.42116 23.8611C5.6028 24.0442 5.89852 24.0462 6.08254 23.8649L8.35451 21.6266C8.7405 21.2407 8.85787 20.6692 8.68813 20.1724L9.17684 19.7011C9.43996 19.447 9.7864 19.3069 10.1526 19.3069H16.3824C17.4876 19.3069 18.5322 18.8824 19.3242 18.1117C19.3568 18.0801 19.0768 18.4098 23.5742 13.0346C24.2413 12.2454 24.1415 11.0604 23.3516 10.3926C22.5666 9.73101 21.3907 9.82604 20.7218 10.6017L17.9566 13.4438C17.6074 13.0141 17.0749 12.7462 16.4996 12.7462H11.2739C10.5304 12.4351 9.74135 12.2776 8.92727 12.2776C6.67067 12.2776 4.70027 13.3199 3.64284 15.274C3.19734 15.1896 2.72749 15.3243 2.38948 15.6623L0.160172 17.8982C-0.021835 18.0808 -0.0222012 18.3762 0.159439 18.5593L5.42116 23.8611ZM8.92708 13.2148C9.64486 13.2148 10.3388 13.3592 10.9901 13.6442C11.0495 13.6702 11.1134 13.6835 11.178 13.6835H16.4996C17.0077 13.6835 17.4369 14.0979 17.4369 14.6207C17.4369 15.1376 17.0165 15.558 16.4996 15.558H12.6762C12.4174 15.558 12.2076 15.7678 12.2076 16.0265C12.2076 16.2855 12.4174 16.4951 12.6762 16.4951H16.4996C17.5332 16.4951 18.374 15.6543 18.374 14.6207C18.374 14.5383 18.3682 14.4566 18.3576 14.3757C21.0326 11.626 21.4098 11.2396 21.4259 11.2204C21.7599 10.8262 22.3527 10.7762 22.7472 11.1087C23.1419 11.4425 23.1919 12.035 22.857 12.4314L18.6538 17.4562C18.0401 18.0455 17.2342 18.3697 16.3824 18.3697H10.1526C9.54213 18.3697 8.96425 18.6032 8.5259 19.0267L8.12764 19.4111L4.45638 15.74C5.31441 14.1303 6.92446 13.2148 8.92708 13.2148ZM3.05269 16.3246C3.20723 16.1701 3.44454 16.1423 3.63295 16.2587C3.71407 16.3082 3.48116 16.0961 7.69185 20.301C7.87917 20.4883 7.8691 20.7867 7.69442 20.9614L5.75753 22.8696L1.15297 18.2298L3.05269 16.3246Z" fill="#EF7D30"/>
<path d="M13.4263 2.34277V2.89191C12.8808 3.08527 12.4889 3.6062 12.4889 4.21723C12.4889 4.99231 13.1196 5.62311 13.8948 5.62311C14.1532 5.62311 14.3634 5.83331 14.3634 6.09168C14.3634 6.35004 14.1532 6.56024 13.8948 6.56024C13.6947 6.56024 13.4784 6.43445 13.2864 6.20575C13.1197 6.00763 12.8242 5.98218 12.6261 6.14862C12.428 6.31525 12.4023 6.61078 12.569 6.8089C12.8194 7.10681 13.1141 7.31446 13.4263 7.41919V7.96613C13.4263 8.22504 13.6361 8.43469 13.8948 8.43469C14.1536 8.43469 14.3634 8.22504 14.3634 7.96613V7.41699C14.9089 7.22345 15.3007 6.70252 15.3007 6.09168C15.3007 5.31641 14.6701 4.68579 13.8948 4.68579C13.6365 4.68579 13.4263 4.47559 13.4263 4.21723C13.4263 3.95886 13.6365 3.74847 13.8948 3.74847C14.0609 3.74847 14.2361 3.83325 14.4017 3.99347C14.5877 4.17346 14.8843 4.16852 15.0643 3.98267C15.2443 3.79663 15.2394 3.5 15.0535 3.32001C14.8157 3.08984 14.5776 2.95966 14.3634 2.88861V2.34277C14.3634 2.08386 14.1536 1.87402 13.8948 1.87402C13.6361 1.87402 13.4263 2.08386 13.4263 2.34277Z" fill="#EF7D30"/>
</g>
<defs>
<clipPath id="clip0">
<rect width="23.9531" height="24" fill="white"/>
</clipPath>
</defs>
</svg>
