<svg width="61" height="60" viewBox="0 0 61 60" fill="none" xmlns="http://www.w3.org/2000/svg">
<path d="M47.9554 7.43275C43.1624 2.63965 36.7896 0 30.0113 0C23.2329 0 16.86 2.63965 12.067 7.43275C7.27393 12.226 4.63428 18.5986 4.63428 25.3769C4.63428 39.0893 17.5997 50.4946 24.5652 56.6218C25.5332 57.4733 26.3691 58.2087 27.0351 58.8307C27.8694 59.6101 28.9404 59.9999 30.0112 59.9999C31.0821 59.9999 32.1529 59.6101 32.9874 58.8307C33.6534 58.2086 34.4893 57.4733 35.4572 56.6218C42.4227 50.4944 55.3882 39.0893 55.3882 25.3769C55.388 18.5986 52.7485 12.226 47.9554 7.43275ZM33.1357 53.983C32.1466 54.8531 31.2924 55.6046 30.5881 56.2624C30.2645 56.5644 29.7578 56.5645 29.4341 56.2624C28.7299 55.6044 27.8756 54.853 26.8865 53.9829C20.338 48.2225 8.14874 37.5 8.14874 25.377C8.14874 13.3221 17.9561 3.51481 30.011 3.51481C42.0659 3.51481 51.8732 13.3221 51.8732 25.377C51.8734 37.5 39.6842 48.2225 33.1357 53.983Z" fill="#EF7D30"/>
<path d="M30.0115 13.2344C23.8449 13.2344 18.8281 18.2511 18.8281 24.4176C18.8281 30.5841 23.8449 35.6008 30.0115 35.6008C36.178 35.6008 41.1947 30.5841 41.1947 24.4176C41.1947 18.2511 36.178 13.2344 30.0115 13.2344ZM30.0115 32.086C25.783 32.086 22.3428 28.6459 22.3428 24.4175C22.3428 20.1891 25.783 16.749 30.0115 16.749C34.24 16.749 37.68 20.1891 37.68 24.4175C37.68 28.6459 34.24 32.086 30.0115 32.086Z" fill="#EF7D30"/>
</svg>
