<svg width="61" height="60" viewBox="0 0 61 60" fill="none" xmlns="http://www.w3.org/2000/svg">
<g clip-path="url(#clip0)">
<path d="M50.9951 15.5859V5C50.9951 2.24316 48.752 0 45.9951 0H5.99512C3.23828 0 0.995117 2.24316 0.995117 5V31C0.995117 33.7568 3.23828 36 5.99512 36H32.9951V39C32.9951 39.2661 33.1001 39.52 33.2881 39.707L37.9951 44.4141V59C37.9951 59.5532 38.4419 60 38.9951 60H59.9951C60.5483 60 60.9951 59.5532 60.9951 59V26C60.9951 25.7339 60.8901 25.48 60.7021 25.293L50.9951 15.5859ZM2.99512 31V5C2.99512 3.34619 4.34131 2 5.99512 2H45.9951C47.6489 2 48.9951 3.34619 48.9951 5V13.5859L47.9443 12.5352C46.9541 11.5449 45.6382 11 44.2373 11C41.3472 11 38.9951 13.3521 38.9951 16.2422C38.9951 17.6421 39.54 18.959 40.5303 19.9492L44.9951 24.4141V31C44.9951 31.2661 45.1001 31.52 45.2881 31.707L47.2793 33.6982C46.8789 33.8892 46.4463 34 45.9951 34H5.99512C4.34131 34 2.99512 32.6538 2.99512 31ZM34.9951 38.5859V36H45.9951C46.9854 36 47.936 35.71 48.751 35.1709L50.2871 36.707L51.7012 35.293L46.9951 30.5859V24C46.9951 23.7339 46.8901 23.48 46.7021 23.293L41.9443 18.5352C41.332 17.9229 40.9951 17.1079 40.9951 16.2422C40.9951 14.4541 42.4492 13 44.2373 13C45.103 13 45.918 13.3369 46.5303 13.9492L58.9951 26.4141V48H39.9951V44C39.9951 43.7339 39.8901 43.48 39.7021 43.293L34.9951 38.5859ZM39.9951 58V50H58.9951V58H39.9951Z" fill="#EF7D30"/>
<path d="M6.28809 11.293L7.70215 12.707L9.99512 10.4141L12.2881 12.707L13.7021 11.293L11.9502 9.54102L14.2373 8.97021L13.7529 7.02979L10.9951 7.71924V5H8.99512V7.71924L6.2373 7.02979L5.75293 8.97021L8.04004 9.54102L6.28809 11.293Z" fill="#EF7D30"/>
<path d="M18.2881 11.293L19.7021 12.707L21.9951 10.4141L24.2881 12.707L25.7021 11.293L23.9502 9.54102L26.2373 8.97021L25.7529 7.02979L22.9951 7.71924V5H20.9951V7.71924L18.2373 7.02979L17.7529 8.97021L20.04 9.54102L18.2881 11.293Z" fill="#EF7D30"/>
<path d="M37.7529 7.02979L34.9951 7.71924V5H32.9951V7.71924L30.2373 7.02979L29.7529 8.97021L32.04 9.54102L30.2881 11.293L31.7021 12.707L33.9951 10.4141L36.2881 12.707L37.7021 11.293L35.9502 9.54102L38.2373 8.97021L37.7529 7.02979Z" fill="#EF7D30"/>
<path d="M12.2881 22.707L13.7021 21.293L11.9502 19.541L14.2373 18.9702L13.7529 17.0298L10.9951 17.7192V15H8.99512V17.7192L6.2373 17.0298L5.75293 18.9702L8.04004 19.541L6.28809 21.293L7.70215 22.707L9.99512 20.4141L12.2881 22.707Z" fill="#EF7D30"/>
<path d="M19.7021 22.707L21.9951 20.4141L24.2881 22.707L25.7021 21.293L23.9502 19.541L26.2373 18.9702L25.7529 17.0298L22.9951 17.7192V15H20.9951V17.7192L18.2373 17.0298L17.7529 18.9702L20.04 19.541L18.2881 21.293L19.7021 22.707Z" fill="#EF7D30"/>
<path d="M8.99512 30H16.9951V32H8.99512V30Z" fill="#EF7D30"/>
<path d="M18.9951 30H26.9951V32H18.9951V30Z" fill="#EF7D30"/>
<path d="M8.99512 26H10.9951V28H8.99512V26Z" fill="#EF7D30"/>
<path d="M12.9951 26H14.9951V28H12.9951V26Z" fill="#EF7D30"/>
<path d="M41.9951 52H43.9951V54H41.9951V52Z" fill="#EF7D30"/>
</g>
<defs>
<clipPath id="clip0">
<rect width="60" height="60" fill="white" transform="translate(0.995117)"/>
</clipPath>
</defs>
</svg>
