<svg width="61" height="60" viewBox="0 0 61 60" fill="none" xmlns="http://www.w3.org/2000/svg">
<g clip-path="url(#clip0)">
<path d="M60.9949 10.2895C60.9949 10.283 60.9941 10.2764 60.9939 10.2697C60.9932 10.2436 60.9917 10.2178 60.9886 10.1923C60.9874 10.1829 60.9857 10.1735 60.9843 10.1641C60.9808 10.1406 60.9764 10.1174 60.971 10.0946C60.9689 10.0856 60.9666 10.0767 60.9641 10.0677C60.9573 10.043 60.9496 10.0187 60.9407 9.99479C60.939 9.99022 60.938 9.98553 60.9362 9.98108L58.5521 3.87773C58.3117 3.26273 57.7296 2.86523 57.0693 2.86523H52.7282C52.255 2.86523 51.8714 3.24879 51.8714 3.72199C51.8714 4.19519 52.255 4.57875 52.7282 4.57875H56.9863L58.8837 9.43604H40.9454L39.8214 4.57875H46.4464C46.9196 4.57875 47.3031 4.19519 47.3031 3.72199C47.3031 3.24879 46.9196 2.86523 46.4464 2.86523H38.7438H30.1109H11.7853C11.1248 2.86523 10.5429 3.26273 10.3025 3.87797L7.91836 9.98108C7.9166 9.98565 7.91566 9.99034 7.9139 9.99479C7.905 10.0186 7.89726 10.0428 7.89047 10.0677C7.888 10.0767 7.88566 10.0856 7.88355 10.0946C7.87816 10.1175 7.87383 10.1407 7.87031 10.1641C7.8689 10.1735 7.86715 10.1829 7.86597 10.1923C7.86304 10.2178 7.8614 10.2436 7.8607 10.2697C7.86058 10.2763 7.85976 10.2828 7.85965 10.2895C7.85965 10.2906 7.85953 10.2916 7.85953 10.2927V22.8798C7.85953 23.353 8.24308 23.7365 8.71628 23.7365C9.18949 23.7365 9.57304 23.353 9.57304 22.8798V11.1496H27.7338V24.1723C27.7338 24.6816 28.0338 25.1457 28.4982 25.3546C28.6682 25.4312 28.8493 25.4686 29.0292 25.4686C29.3404 25.4686 29.6483 25.3568 29.8897 25.1428L34.4273 21.1228L38.9649 25.1427C39.3459 25.4805 39.8922 25.5636 40.3566 25.3546C40.8209 25.1456 41.1209 24.6816 41.1209 24.1723V11.1496H59.2815V49.578C59.2815 50.1927 58.7813 50.693 58.1665 50.693H42.4572C42.4572 50.6833 42.456 50.6735 42.4559 50.6638C42.455 50.5869 42.4522 50.5102 42.4456 50.434C43.9206 50.8251 45.4967 50.067 46.0878 48.6174C46.3987 47.8548 46.3941 47.0169 46.0748 46.258C46.0447 46.1866 46.0115 46.1172 45.9766 46.0489C45.9701 46.0363 45.9639 46.0237 45.9575 46.0112C45.9231 45.9461 45.8866 45.8825 45.848 45.8205C45.8405 45.8084 45.8328 45.7967 45.8252 45.7847C45.7844 45.7211 45.7421 45.6586 45.697 45.5985C45.6961 45.5973 45.6952 45.5963 45.6944 45.5952C45.6496 45.5358 45.6023 45.4786 45.5534 45.4227C45.5445 45.4125 45.5357 45.4022 45.5267 45.392C45.4783 45.3381 45.428 45.286 45.376 45.2357C45.3658 45.2259 45.3555 45.2164 45.3452 45.2068C45.2907 45.1555 45.2349 45.1057 45.1768 45.0587C45.1748 45.0572 45.1728 45.0557 45.1708 45.0542C45.1136 45.0081 45.0542 44.9645 44.9936 44.9226C44.9827 44.915 44.9719 44.9072 44.9608 44.8997C44.9002 44.8589 44.8381 44.8204 44.7743 44.7837C44.7691 44.7807 44.7643 44.7771 44.7589 44.7741C45.121 44.4607 45.4068 44.0642 45.5929 43.6078C45.9038 42.8453 45.8992 42.0074 45.5799 41.2484C45.3005 40.5843 44.8094 40.0502 44.1803 39.7188C44.0904 39.6714 43.9977 39.6282 43.9025 39.5894L30.5681 34.1522L36.775 32.2311C38.2517 31.7739 39.0834 30.1989 38.6289 28.7204C38.4594 28.1684 38.1231 27.703 37.6888 27.3628C37.0426 26.8564 36.1788 26.6278 35.3221 26.8076C35.318 26.8086 35.314 26.8093 35.3099 26.8103C35.2625 26.821 30.5042 27.8909 25.5347 28.86C25.3142 28.903 25.0994 28.9444 24.8877 28.9852C24.7182 29.0178 24.5511 29.0499 24.3872 29.0811C24.34 29.0901 24.2928 29.099 24.2461 29.1079C23.9566 29.1629 23.6762 29.2155 23.4036 29.2661C23.2939 29.2865 23.1852 29.3067 23.0782 29.3264C16.8371 30.4761 15.0839 30.4967 14.5973 30.4308C14.5955 30.4306 14.5938 30.4304 14.5919 30.43C14.5846 30.429 14.5773 30.4279 14.5705 30.4269C14.5656 30.426 14.561 30.4252 14.5564 30.4245C14.5531 30.4239 14.5496 30.4233 14.5465 30.4229C14.5161 30.4174 14.4924 30.4116 14.4742 30.4061L14.3338 30.3489L14.5087 29.9199C14.6808 29.498 14.6782 29.0344 14.5016 28.6146C14.4574 28.5096 14.4036 28.4104 14.3413 28.3181C14.1542 28.0412 13.8898 27.8255 13.5733 27.6965L8.97164 25.8202C8.54988 25.6481 8.08617 25.6508 7.66629 25.8274C7.24629 26.004 6.92039 26.3336 6.74836 26.7554L1.12138 40.5557C0.766299 41.4265 1.18595 42.4238 2.05677 42.779L6.65859 44.6554C6.86871 44.7411 7.08609 44.7816 7.30019 44.7816C7.9732 44.7816 8.61234 44.3806 8.88175 43.72L8.92406 43.6163L9.98507 44.0488C9.98566 44.0491 9.98624 44.0494 9.98695 44.0496C11.0018 44.4634 11.9368 45.0538 12.7461 45.7865C12.8933 45.9197 13.0363 46.0577 13.1749 46.2C13.3135 46.3424 13.4476 46.4894 13.5771 46.6405C13.6418 46.7161 13.7054 46.7929 13.7676 46.8706C14.9469 48.341 16.4928 49.4945 18.2381 50.2062L19.4318 50.6929H10.6882C10.0734 50.6929 9.57316 50.1926 9.57316 49.5778V47.41C9.57316 46.9368 9.1896 46.5532 8.7164 46.5532C8.2432 46.5532 7.85965 46.9368 7.85965 47.41V49.5778C7.85965 51.1375 9.12843 52.4064 10.6882 52.4064H23.6342L34.671 56.9066C35.051 57.0615 35.444 57.135 35.8311 57.1349C37.0474 57.1349 38.2026 56.4101 38.6895 55.2161C38.8892 54.7263 38.9533 54.2145 38.8995 53.7224C39.4736 53.8048 40.0688 53.7292 40.6083 53.4962C41.1567 53.2594 41.6111 52.8822 41.9338 52.4063H58.1666C59.7263 52.4063 60.9952 51.1375 60.9952 49.5777V10.2928C60.995 10.2916 60.9949 10.2907 60.9949 10.2895ZM30.792 4.57875H38.0626L39.1865 9.43604H29.6681L30.792 4.57875ZM27.9093 9.43604H9.97089L11.8683 4.57875H29.0333L27.9093 9.43604ZM39.4076 23.2455H39.4075L35.287 19.5951C35.0419 19.3781 34.7347 19.2696 34.4275 19.2696C34.1203 19.2696 33.8129 19.3781 33.5678 19.5951L29.4474 23.2455V11.1496H39.4076V23.2455ZM7.29808 43.0656L2.71102 41.1953L8.33203 27.41L12.9191 29.2804L7.29808 43.0656ZM41.5267 48.236L40.5434 47.835C40.5429 47.8348 40.5425 47.8347 40.542 47.8344C40.5417 47.8343 40.5413 47.8341 40.541 47.834C40.5408 47.834 40.5407 47.8339 40.5406 47.8339L30.3001 43.6584C29.862 43.4798 29.362 43.69 29.1833 44.1283C29.0046 44.5664 29.2149 45.0665 29.6532 45.2452L39.894 49.4208C39.9367 49.4383 39.9781 49.4576 40.0181 49.4788C40.0293 49.4848 40.0397 49.4921 40.0508 49.4983C40.0789 49.5142 40.1071 49.5301 40.1337 49.5478C40.1465 49.5564 40.1582 49.5662 40.1706 49.5751C40.1942 49.592 40.2182 49.6087 40.2405 49.6269C40.254 49.638 40.2661 49.6503 40.2792 49.6617C40.2991 49.6794 40.3195 49.6966 40.3382 49.7153C40.3512 49.7282 40.3628 49.7424 40.3752 49.7557C40.3925 49.7742 40.4102 49.7924 40.4263 49.8119C40.4386 49.8267 40.4494 49.8426 40.4611 49.8579C40.4758 49.8771 40.491 49.896 40.5045 49.9159C40.5159 49.9326 40.5256 49.9501 40.5361 49.9671C40.5483 49.9868 40.5612 50.0062 40.5724 50.0264C40.5824 50.0447 40.5909 50.0638 40.6001 50.0824C40.61 50.1025 40.6206 50.1222 40.6295 50.1427C40.6381 50.1624 40.645 50.1828 40.6526 50.2028C40.6604 50.2231 40.6688 50.243 40.6756 50.2636C40.6824 50.2844 40.6876 50.3056 40.6933 50.3265C40.699 50.3473 40.7055 50.3677 40.7103 50.3887C40.7151 50.4099 40.7181 50.4314 40.722 50.4528C40.7259 50.4741 40.7303 50.4952 40.7331 50.5167C40.736 50.5383 40.737 50.5601 40.7388 50.5818C40.7405 50.6036 40.7431 50.6253 40.7438 50.6471C40.7445 50.6685 40.7435 50.6902 40.7432 50.7117C40.743 50.734 40.7433 50.7563 40.7419 50.7787C40.7406 50.7999 40.7375 50.8211 40.7351 50.8423C40.7327 50.8651 40.7308 50.888 40.727 50.9107C40.7236 50.9316 40.7184 50.9523 40.714 50.9732C40.7091 50.9963 40.705 51.0194 40.6988 51.0423C40.6934 51.0626 40.6861 51.0828 40.6797 51.1029C40.6724 51.1259 40.6658 51.1489 40.6572 51.1715C40.6499 51.1871 40.6428 51.2028 40.6361 51.2186C40.6346 51.2222 40.6338 51.226 40.6324 51.2295C40.4985 51.5385 40.2515 51.784 39.9289 51.9233C39.5738 52.0765 39.1673 52.0819 38.8134 51.9375L36.999 51.1977C36.9905 51.1943 36.982 51.192 36.9735 51.1888C36.965 51.1849 36.9569 51.1805 36.9482 51.177L28.619 47.7808C28.1806 47.6022 27.6808 47.8124 27.5022 48.2507C27.3235 48.6889 27.5339 49.1889 27.972 49.3676L36.3012 52.7638C36.3101 52.7674 36.3192 52.77 36.3282 52.7733C36.3363 52.7768 36.3438 52.7812 36.3521 52.7844C37.0511 53.0696 37.388 53.8702 37.103 54.5692C36.8179 55.2685 36.0176 55.6055 35.3183 55.3201L24.1275 50.7571C24.127 50.7569 24.1265 50.7566 24.1261 50.7564L18.8854 48.6195C17.9629 48.2433 17.1063 47.7212 16.3501 47.0789C15.8963 46.6935 15.4788 46.265 15.1047 45.7985C14.7362 45.3391 14.3319 44.9105 13.8969 44.5166C12.9398 43.6503 11.8342 42.9522 10.6343 42.4628C10.6342 42.4628 10.6341 42.4627 10.6339 42.4627L9.57152 42.0296L11.6876 36.8399L13.6873 31.9358L13.8348 31.9959C13.9737 32.0525 14.1717 32.1329 14.7047 32.153C15.3705 32.1831 16.4721 32.1137 18.4455 31.8349C19.7879 31.6453 21.4345 31.371 23.3567 31.0174C23.4041 31.0087 23.4511 31 23.4989 30.9912C23.5888 30.9746 23.6796 30.9577 23.7707 30.9408C23.8416 30.9277 23.9129 30.9144 23.9847 30.9009C24.0665 30.8855 24.1487 30.8702 24.2314 30.8546C24.3192 30.8381 24.408 30.8213 24.4973 30.8043C24.5688 30.7907 24.6402 30.7773 24.7123 30.7635C24.8212 30.7428 24.932 30.7216 25.043 30.7003C25.1002 30.6892 25.1568 30.6785 25.2145 30.6674C25.3846 30.6346 25.557 30.6014 25.7326 30.5673C30.685 29.604 35.4651 28.5318 35.6799 28.4835C35.7014 28.4791 35.7228 28.4765 35.7442 28.4734C36.2946 28.3919 36.8337 28.7102 36.9916 29.2237C37.047 29.4042 37.0535 29.5883 37.0185 29.7615C36.9418 30.1427 36.6647 30.4716 36.2688 30.5941L27.7748 33.2231C27.429 33.3302 27.1878 33.6427 27.1722 34.0044C27.1565 34.3659 27.3696 34.6983 27.7047 34.835L43.2559 41.1761C43.5946 41.3141 43.8592 41.5758 44.001 41.913C44.1428 42.2501 44.1449 42.6223 44.0068 42.9609C43.8686 43.2995 43.607 43.5641 43.2699 43.7059C43.1014 43.7767 42.9241 43.8126 42.7465 43.8136C42.744 43.8136 42.7414 43.8133 42.7388 43.8133C42.6971 43.8133 42.6555 43.8116 42.6139 43.8078C42.6016 43.8066 42.5894 43.804 42.5771 43.8026C42.5453 43.7987 42.5136 43.7951 42.482 43.789C42.4621 43.7852 42.4424 43.7793 42.4226 43.7746C42.399 43.769 42.3752 43.7642 42.3517 43.7573C42.3275 43.7501 42.3037 43.7406 42.2798 43.7321C42.2608 43.7253 42.2415 43.7196 42.2227 43.712L31.981 39.5359C31.5428 39.3572 31.0429 39.5676 30.8642 40.0059C30.6855 40.444 30.8959 40.9441 31.3341 41.1228L43.7507 46.1856C43.8354 46.2201 43.9155 46.2624 43.9901 46.3116C44.2141 46.4593 44.3895 46.6696 44.4958 46.9225C44.6199 47.2175 44.637 47.5392 44.5468 47.8419C44.5339 47.8852 44.5188 47.9281 44.5015 47.9704C44.4837 48.0141 44.4639 48.0564 44.4422 48.0972C44.3917 48.1921 44.3302 48.2779 44.2615 48.356C44.2189 48.4046 44.1733 48.4498 44.1248 48.4913C44.117 48.4978 44.11 48.5053 44.1022 48.5117C43.7895 48.7674 43.3715 48.8773 42.9631 48.7948C42.8802 48.778 42.7979 48.7542 42.7168 48.7212L41.5267 48.236Z" fill="#EF7D30"/>
</g>
<defs>
<clipPath id="clip0">
<rect width="60" height="60" fill="white" transform="translate(0.995117)"/>
</clipPath>
</defs>
</svg>
