<svg width="24" height="24" viewBox="0 0 24 24" fill="none" xmlns="http://www.w3.org/2000/svg">
<path d="M8.08828 18.3703C8.08219 18.3403 8.07328 18.3107 8.06156 18.2821C8.04984 18.254 8.03531 18.2268 8.01844 18.2015C8.00156 18.1757 7.98188 18.1518 7.96031 18.1303C7.93875 18.1087 7.91484 18.089 7.88906 18.0721C7.86375 18.0553 7.83656 18.0407 7.80797 18.029C7.77984 18.0173 7.75031 18.0079 7.72031 18.0023C7.65984 17.9901 7.5975 17.9901 7.5375 18.0023C7.5075 18.0079 7.47797 18.0173 7.44937 18.029C7.42125 18.0407 7.39406 18.0553 7.36875 18.0721C7.34297 18.089 7.31906 18.1087 7.2975 18.1303C7.27594 18.1518 7.25625 18.1757 7.23938 18.2015C7.22203 18.2268 7.20797 18.254 7.19625 18.2821C7.18453 18.3107 7.17516 18.3403 7.16953 18.3703C7.16344 18.4003 7.16016 18.4312 7.16016 18.4617C7.16016 18.4921 7.16344 18.5231 7.16953 18.5531C7.17516 18.5831 7.18453 18.6126 7.19625 18.6407C7.20797 18.6693 7.22203 18.6965 7.23938 18.7218C7.25625 18.7476 7.27594 18.7715 7.2975 18.7931C7.31906 18.8146 7.34297 18.8343 7.36875 18.8512C7.39406 18.8681 7.42125 18.8827 7.44937 18.8944C7.47797 18.9061 7.5075 18.9155 7.5375 18.9211C7.5675 18.9272 7.59844 18.9305 7.62891 18.9305C7.65938 18.9305 7.69031 18.9272 7.72031 18.9211C7.75031 18.9155 7.77984 18.9061 7.80797 18.8944C7.83656 18.8827 7.86375 18.8681 7.88906 18.8512C7.91484 18.8343 7.93875 18.8146 7.96031 18.7931C7.98188 18.7715 8.00156 18.7476 8.01844 18.7218C8.03531 18.6965 8.04984 18.6693 8.06156 18.6407C8.07328 18.6126 8.08219 18.5831 8.08828 18.5531C8.09438 18.5231 8.09766 18.4921 8.09766 18.4617C8.09766 18.4312 8.09438 18.4003 8.08828 18.3703Z" fill="#EF7D30"/>
<path d="M21.5622 18.5145C21.5603 18.5098 21.5585 18.5052 21.5565 18.5006C21.1251 17.4911 20.1132 17.1179 18.9158 17.5269L15.6501 18.43C15.4613 17.8582 14.9903 17.3717 14.3244 17.1245C14.3203 17.123 14.3161 17.1215 14.312 17.1201L10.7222 15.9018C10.4235 15.5156 9.48755 14.5273 7.73522 14.5273C6.51061 14.5273 5.42728 15.3674 4.8075 16.2831H0.46875C0.209859 16.2831 0 16.493 0 16.7519V22.6618C0 22.9206 0.209859 23.1305 0.46875 23.1305H3.2558C3.51469 23.1305 3.72455 22.9206 3.72455 22.6618V22.257H5.03156C5.29045 22.257 5.50031 22.0472 5.50031 21.7883V21.6534C6.26222 21.7198 6.51281 21.8644 7.21256 22.2679C7.75069 22.5782 8.56402 23.0472 10.0287 23.7057C10.0355 23.7088 10.0424 23.7117 10.0492 23.7144C10.3304 23.825 10.8799 23.9987 11.5574 23.9987C12.0289 23.9987 12.5626 23.9144 13.1104 23.6661L20.3287 21.0816C20.3415 21.077 20.3542 21.0719 20.3666 21.0662C21.0564 20.7488 22.0845 19.8543 21.5622 18.5145ZM2.78705 22.193H0.9375V17.2206H2.78705V22.193ZM4.56281 21.3195H3.72455V17.2206H4.56281V21.3195ZM19.992 20.2063L12.7769 22.7897C12.7706 22.7919 12.762 22.7953 12.7558 22.7978C12.7494 22.8004 12.7431 22.8031 12.7369 22.806C11.732 23.2678 10.7768 22.9913 10.4025 22.8458C8.98772 22.2092 8.23261 21.7738 7.68089 21.4556C6.91383 21.0133 6.54422 20.8001 5.50031 20.7139V16.9385C5.94464 16.2102 6.8063 15.4648 7.73527 15.4648C9.32836 15.4648 10.0034 16.501 10.0299 16.5428C10.0872 16.6359 10.1752 16.706 10.2786 16.7412L14.004 18.0056C14.599 18.2289 14.9134 18.7384 14.7689 19.2465C14.7022 19.4812 14.5481 19.6758 14.335 19.7945C14.1237 19.9123 13.8795 19.9414 13.6467 19.877L9.44705 18.5461C9.20011 18.4678 8.93677 18.6045 8.85858 18.8513C8.78034 19.0981 8.91703 19.3616 9.16383 19.4398L13.3708 20.773C13.3753 20.7744 13.3797 20.7757 13.3842 20.777C13.5522 20.8248 13.7232 20.8484 13.8931 20.8484C14.2043 20.8484 14.512 20.7691 14.7913 20.6135C15.2232 20.3729 15.5355 19.9785 15.6706 19.5029C15.6814 19.465 15.691 19.427 15.6993 19.389L19.2188 18.414C19.7271 18.2404 20.3944 18.1778 20.6915 18.8621C20.999 19.6654 20.1998 20.1073 19.992 20.2063Z" fill="#EF7D30"/>
<path d="M16.8309 6.16617C16.8248 6.13617 16.8159 6.10664 16.8038 6.07805C16.792 6.04992 16.778 6.02273 16.7606 5.99742C16.7437 5.97164 16.7241 5.94773 16.7025 5.92617C16.6809 5.90461 16.657 5.88492 16.6312 5.86805C16.6059 5.85117 16.5787 5.83664 16.5506 5.82492C16.522 5.8132 16.4925 5.80383 16.463 5.7982C16.4025 5.78602 16.3402 5.78602 16.2797 5.7982C16.2497 5.80383 16.2202 5.8132 16.192 5.82492C16.1634 5.83664 16.1363 5.85117 16.1109 5.86805C16.0852 5.88492 16.0612 5.90461 16.0397 5.92617C16.0181 5.94773 15.9984 5.97164 15.9816 5.99742C15.9647 6.02273 15.9502 6.04992 15.9384 6.07805C15.9267 6.10664 15.9173 6.13617 15.9117 6.16617C15.9056 6.19617 15.9023 6.22711 15.9023 6.25758C15.9023 6.28805 15.9056 6.31898 15.9117 6.34898C15.9173 6.37898 15.9267 6.40852 15.9384 6.43664C15.9502 6.46523 15.9647 6.49242 15.9816 6.51773C15.9984 6.54352 16.0181 6.56742 16.0397 6.58898C16.0612 6.61055 16.0852 6.63023 16.1109 6.64711C16.1363 6.66398 16.1634 6.67852 16.192 6.69023C16.2202 6.70195 16.2497 6.71086 16.2797 6.71695C16.3097 6.72305 16.3406 6.72633 16.3711 6.72633C16.4016 6.72633 16.4325 6.72305 16.463 6.71695C16.4925 6.71086 16.522 6.70195 16.5506 6.69023C16.5787 6.67852 16.6059 6.66398 16.6312 6.64711C16.657 6.63023 16.6809 6.61055 16.7025 6.58898C16.7241 6.56742 16.7437 6.54352 16.7606 6.51773C16.778 6.49242 16.792 6.46523 16.8038 6.43664C16.8159 6.40852 16.8248 6.37898 16.8309 6.34898C16.837 6.31898 16.8398 6.28805 16.8398 6.25758C16.8398 6.22711 16.837 6.19617 16.8309 6.16617Z" fill="#EF7D30"/>
<path d="M23.5311 1.58853H20.744C20.4852 1.58853 20.2753 1.79839 20.2753 2.05728V2.462H18.9683C18.7094 2.462 18.4995 2.67186 18.4995 2.93075V3.06565C17.7376 2.99914 17.487 2.85467 16.7873 2.45117C16.2492 2.14086 15.4359 1.67187 13.9712 1.01332C13.9644 1.01023 13.9575 1.00737 13.9506 1.00465C13.4738 0.817059 12.2242 0.447965 10.8897 1.05279L9.00341 1.72817L7.41346 0.138262C7.23041 -0.0447852 6.9336 -0.0447852 6.75055 0.138262L1.53065 5.35812C1.3618 5.52701 1.32941 5.81984 1.53065 6.02107L10.4503 14.9408C10.5931 15.0836 10.9273 15.1267 11.1133 14.9408L15.8788 10.1753C16.0027 10.186 16.1313 10.1917 16.2646 10.1917C17.4892 10.1917 18.5725 9.35164 19.1923 8.43598H23.5311C23.79 8.43598 23.9998 8.22612 23.9998 7.96723V2.05728C23.9998 1.79839 23.79 1.58853 23.5311 1.58853ZM7.08196 1.13262L8.15033 2.201C7.83275 2.3974 7.46558 2.5025 7.08196 2.5025C6.69829 2.5025 6.33116 2.39745 6.01358 2.201L7.08196 1.13262ZM3.59343 6.758L2.52505 5.68957L3.59343 4.6212C3.78983 4.93878 3.89493 5.30595 3.89493 5.68957C3.89493 6.0732 3.78988 6.44037 3.59343 6.758ZM10.7818 13.9464L9.71366 12.8782C10.3658 12.4757 11.1978 12.4757 11.85 12.8782L10.7818 13.9464ZM12.5254 12.2029C11.4895 11.4515 10.0742 11.4515 9.03833 12.2029L4.26875 7.43328C4.6348 6.92984 4.83243 6.32511 4.83243 5.68957C4.83243 5.054 4.63485 4.44931 4.26875 3.94587L5.3383 2.87637C5.84174 3.24242 6.44643 3.44004 7.082 3.44004C7.71758 3.44004 8.32227 3.24242 8.82571 2.87637L9.83957 3.89023C9.6208 3.92253 9.40747 3.99462 9.20854 4.10548C8.87254 4.2927 8.60891 4.57306 8.44475 4.91225C7.916 5.01017 7.42649 5.26615 7.04249 5.65011C6.00069 6.69195 6.00069 8.38709 7.04254 9.42893C7.56341 9.94981 8.24764 10.2103 8.93193 10.2103C9.61616 10.2103 10.3004 9.94985 10.8214 9.42893C11.1603 9.09003 11.3977 8.6735 11.5166 8.21956L13.0993 8.7567C12.9211 9.58207 13.1036 10.4504 13.5958 11.1324L12.5254 12.2029ZM9.67546 7.59448C9.67958 7.59598 9.68371 7.59748 9.68788 7.59889L10.6252 7.91703C10.5544 8.23648 10.3942 8.5302 10.1585 8.76603C9.48214 9.44225 8.38171 9.44234 7.70549 8.76603C7.02918 8.08976 7.02918 6.98937 7.70549 6.31306C7.86861 6.14984 8.06113 6.02229 8.2709 5.93581C8.35743 6.6559 8.87591 7.29776 9.67546 7.59448ZM14.2713 10.4569C14.0903 10.1621 13.988 9.82559 13.9718 9.48214C14.1963 9.64446 14.4707 9.80351 14.7985 9.92975L14.2713 10.4569ZM18.4995 7.78034C18.0552 8.50868 17.1936 9.25414 16.2646 9.25414C16.0908 9.25414 15.9279 9.24176 15.7756 9.21973C15.775 9.21964 15.7744 9.21954 15.7738 9.21945C14.7614 9.0724 14.2169 8.49706 14.0374 8.26925C14.0278 8.25518 13.9871 8.20189 13.9811 8.19303C13.9265 8.09543 13.8369 8.01696 13.7227 7.9782L9.9958 6.71328C9.40105 6.49006 9.08666 5.98076 9.23075 5.47282C9.23085 5.4725 9.23094 5.47217 9.23104 5.47184C9.23118 5.47147 9.23127 5.47104 9.23136 5.47067C9.29835 5.23676 9.45219 5.04275 9.66482 4.92429C9.87604 4.80659 10.1202 4.77739 10.3531 4.84193L14.5528 6.17276C14.7996 6.25109 15.063 6.11431 15.1412 5.86751C15.2194 5.62072 15.0828 5.35728 14.836 5.27904L11.4959 4.22061L11.4667 4.19145C11.4665 4.19117 11.4662 4.19084 11.4658 4.19056L9.73663 2.46134L11.2229 1.92912C11.228 1.92729 11.2341 1.925 11.2391 1.92298C11.2404 1.92246 11.2428 1.92153 11.244 1.92101C11.2504 1.91843 11.2567 1.91571 11.2629 1.91286C12.2677 1.45104 13.2229 1.72746 13.5973 1.87306C15.0121 2.50967 15.7672 2.94509 16.319 3.26323C17.086 3.70559 17.4556 3.91873 18.4995 4.00493V7.78034ZM20.2753 7.49839H19.437V3.3995H20.2753V7.49839ZM23.0623 7.49839H21.2128V2.52603H23.0623V7.49839Z" fill="#EF7D30"/>
</svg>
