<svg width="24" height="24" viewBox="0 0 24 24" fill="none" xmlns="http://www.w3.org/2000/svg">
<path d="M20.7566 11.086C21.4594 10.5922 21.9248 9.77065 21.9248 8.84465C21.9248 7.32981 20.6996 6.10464 19.1848 6.10464C17.67 6.10464 16.4448 7.32981 16.4448 8.84465C16.4448 9.77065 16.9054 10.5922 17.613 11.086C17.0099 11.295 16.459 11.6179 15.9937 12.0358C15.3526 11.4897 14.5975 11.0718 13.7713 10.8249C14.7732 10.217 15.4476 9.11058 15.4476 7.85217C15.4476 5.93369 13.8947 4.38086 11.9763 4.38086C10.0578 4.38086 8.50495 5.93844 8.50495 7.85217C8.50495 9.11058 9.17451 10.217 10.1812 10.8249C9.36446 11.0718 8.61892 11.4849 7.98259 12.0215C7.51721 11.6132 6.97586 11.295 6.38227 11.0908C7.08508 10.5969 7.55046 9.7754 7.55046 8.8494C7.55046 7.33456 6.32529 6.10939 4.81045 6.10939C3.29561 6.10939 2.07044 7.33456 2.07044 8.8494C2.07044 9.7754 2.53106 10.5969 3.23862 11.0908C1.35338 11.7414 0 13.5316 0 15.6353V15.9487C0 15.9582 0.00949743 15.9677 0.0189949 15.9677H5.82667C5.79343 16.2289 5.77444 16.4996 5.77444 16.7703V17.0932C5.77444 18.4893 6.90463 19.6195 8.30075 19.6195H15.6613C17.0574 19.6195 18.1876 18.4893 18.1876 17.0932V16.7703C18.1876 16.4996 18.1686 16.2289 18.1353 15.9677H23.981C23.9905 15.9677 24 15.9582 24 15.9487V15.6353C23.9905 13.5269 22.6419 11.7366 20.7566 11.086ZM17.2046 8.8399C17.2046 7.7477 18.0926 6.85969 19.1848 6.85969C20.277 6.85969 21.165 7.7477 21.165 8.8399C21.165 9.91786 20.296 10.7964 19.2228 10.8201C19.2085 10.8201 19.1991 10.8201 19.1848 10.8201C19.1706 10.8201 19.1611 10.8201 19.1468 10.8201C18.0689 10.8011 17.2046 9.92261 17.2046 8.8399ZM9.25524 7.85217C9.25524 6.35632 10.4709 5.14065 11.9668 5.14065C13.4626 5.14065 14.6783 6.35632 14.6783 7.85217C14.6783 9.29578 13.5433 10.4782 12.1235 10.5589C12.0712 10.5589 12.019 10.5589 11.9668 10.5589C11.9145 10.5589 11.8623 10.5589 11.8101 10.5589C10.3902 10.4782 9.25524 9.29578 9.25524 7.85217ZM2.81599 8.8399C2.81599 7.7477 3.704 6.85969 4.7962 6.85969C5.88841 6.85969 6.77641 7.7477 6.77641 8.8399C6.77641 9.91786 5.9074 10.7964 4.83419 10.8201C4.81994 10.8201 4.81045 10.8201 4.7962 10.8201C4.78195 10.8201 4.77246 10.8201 4.75821 10.8201C3.685 10.8011 2.81599 9.92261 2.81599 8.8399ZM5.95964 15.2032H0.769292C0.982984 13.1802 2.69252 11.5942 4.76771 11.5799C4.77721 11.5799 4.7867 11.5799 4.7962 11.5799C4.8057 11.5799 4.8152 11.5799 4.82469 11.5799C5.81243 11.5847 6.71468 11.9503 7.41274 12.5439C6.72893 13.2847 6.22082 14.1965 5.95964 15.2032ZM17.4183 17.0932C17.4183 18.0667 16.6252 18.8597 15.6518 18.8597H8.29125C7.31777 18.8597 6.52473 18.0667 6.52473 17.0932V16.7703C6.52473 13.8213 8.88009 11.409 11.8101 11.3235C11.8623 11.3282 11.9193 11.3282 11.9715 11.3282C12.0237 11.3282 12.0807 11.3282 12.133 11.3235C15.0629 11.409 17.4183 13.8213 17.4183 16.7703V17.0932ZM17.9834 15.2032C17.7222 14.2012 17.2236 13.3037 16.5445 12.5629C17.2473 11.9551 18.1591 11.5894 19.1563 11.5799C19.1658 11.5799 19.1753 11.5799 19.1848 11.5799C19.1943 11.5799 19.2038 11.5799 19.2133 11.5799C21.2885 11.5942 22.998 13.1802 23.2117 15.2032H17.9834Z" fill="#EF7D30"/>
</svg>
