<svg width="25" height="30" viewBox="0 0 25 30" fill="none" xmlns="http://www.w3.org/2000/svg">
<path d="M23.1178 17.5911C22.9822 17.7341 22.4702 18.3459 21.9932 18.8492C19.1969 22.0142 11.9022 27.1946 8.08418 28.7759C7.50434 29.03 6.03839 29.5678 5.25515 29.6023C4.50464 29.6023 3.7892 29.4247 3.10649 29.0645C2.25544 28.5613 1.57273 27.7694 1.19865 26.8345C0.957829 26.1857 0.583743 24.2442 0.583743 24.2097C0.209655 22.0857 0.00390736 18.6346 0.00390753 14.8208C0.00390768 11.187 0.209655 7.8765 0.515939 5.72045C0.55101 5.68591 0.925096 3.2733 1.33425 2.4469C2.08476 0.937169 3.55072 -0.00024506 5.11954 -0.000244989L5.25515 -0.000244983C6.27687 0.0367582 8.42553 0.974172 8.42553 1.00871C12.0378 2.59244 19.1642 7.5188 22.0283 10.7923C22.0283 10.7923 22.8349 11.6336 23.1856 12.159C23.7327 12.9139 24.0039 13.8488 24.0039 14.7838C24.0039 15.8272 23.6976 16.7992 23.1178 17.5911Z" fill="#F2F4F8"/>
</svg>
