<svg width="24" height="24" viewBox="0 0 24 24" fill="none" xmlns="http://www.w3.org/2000/svg">
<g clip-path="url(#clip0)">
<path d="M23.3753 17.178C22.9276 16.5201 22.1681 16.3595 21.3431 16.7477L20.9059 16.9402C21.5953 15.4707 21.6809 13.8325 21.3376 12.2852C20.9435 10.508 19.9914 8.78639 18.5079 7.16813C18.3767 7.02502 18.1544 7.01536 18.0113 7.14657C17.8681 7.27772 17.8585 7.50005 17.9897 7.64321C19.3887 9.16927 20.2842 10.7823 20.6513 12.4374C21.038 14.1808 20.8131 15.9788 19.8263 17.4155L15.4509 19.342L15.4545 18.8479C15.4546 18.8354 15.454 18.8229 15.4528 18.8105C15.3518 17.7949 14.5754 16.9857 13.5648 16.8427C13.5618 16.8422 13.5588 16.8419 13.5558 16.8415L9.66699 16.3938C8.17163 16.1809 7.7865 15.2848 5.76132 14.7738C5.62139 13.5865 5.80791 12.3223 6.31913 11.055C7.08905 9.1463 8.59529 7.29192 10.6834 5.67788C11.4616 6.22969 14.9338 6.29836 15.7108 5.58652C16.1089 5.88882 16.4888 6.20035 16.8427 6.51568C16.9097 6.57539 16.9932 6.60474 17.0764 6.60474C17.1732 6.60474 17.2696 6.56503 17.339 6.48708C17.4681 6.34214 17.4553 6.11996 17.3103 5.99082C16.9224 5.64521 16.5051 5.30419 16.0674 4.97461C16.17 4.53971 16.0265 4.03069 15.6477 3.72769C16.7483 2.05838 17.0684 0.965769 16.6262 0.393331C16.3225 9.7096e-05 15.9447 0.184644 15.7834 0.263488C15.5099 0.396988 15.3608 0.404019 15.1092 0.239394C14.6291 -0.0747154 14.1246 -0.0848404 13.6291 0.239394C13.3742 0.406128 13.1736 0.406128 12.9188 0.239394C12.4388 -0.0747154 11.9344 -0.0848404 11.4388 0.239394C11.1842 0.405988 11.0346 0.395675 10.7654 0.261894C10.6043 0.181785 10.2269 -0.00580917 9.92124 0.387472C9.489 0.943785 9.77818 2.00194 10.8045 3.61449C10.7416 3.64847 10.6817 3.68836 10.6258 3.73392C10.2176 3.30286 9.54886 2.85328 8.58174 2.96128C7.77957 3.05105 7.18805 2.78597 6.83302 2.54785C6.67177 2.43985 6.45343 2.48288 6.34533 2.64403C6.23724 2.80528 6.28032 3.02363 6.44152 3.13172C6.8941 3.43514 7.64625 3.77293 8.65974 3.65991C9.40693 3.5761 9.91393 3.95794 10.2295 4.34653C10.2252 4.36153 10.2212 4.37663 10.2175 4.39172C9.94833 4.39594 9.546 4.42107 9.10294 4.51322C8.03738 4.73489 7.24641 5.24128 6.81549 5.97778C6.71747 6.14532 6.77382 6.36066 6.94135 6.45872C7.10893 6.55674 7.32422 6.50035 7.42224 6.33282C8.06321 5.23739 9.62775 5.10343 10.2492 5.09503C10.2518 5.10277 10.255 5.11041 10.2578 5.1181C8.04024 6.82871 6.49636 8.73638 5.66724 10.7918C5.14318 12.0911 4.93383 13.3927 5.0401 14.6297C4.70302 14.5798 4.36205 14.5531 4.01944 14.5507V14.3381C4.01944 13.7757 3.56185 13.3181 2.99939 13.3181H1.38577C0.823317 13.3181 0.365723 13.7757 0.365723 14.3381V22.5246C0.365723 23.0871 0.823317 23.5446 1.38577 23.5446H2.99935C3.5618 23.5446 4.01939 23.087 4.01939 22.5246V22.4244L7.53928 23.7346C8.0123 23.9106 8.50805 23.9999 9.01275 23.9999H14.2574C15.0593 23.9999 15.8411 23.773 16.5183 23.3438C23.5148 18.9085 23.09 19.1845 23.1304 19.1487C23.694 18.6484 23.7992 17.8012 23.3753 17.178ZM15.0512 5.16999C13.7658 5.49455 12.516 5.49455 11.2303 5.16999C10.6786 5.03053 10.8385 4.04663 11.4314 4.19532C12.5816 4.48407 13.6998 4.48407 14.8501 4.19532C15.4327 4.04907 15.6117 5.02833 15.0512 5.16999ZM10.4444 0.887441C10.4471 0.8888 10.4499 0.890206 10.4525 0.891519C10.9283 1.12796 11.3451 1.1408 11.8237 0.827722C12.4225 0.435706 12.4876 1.06425 13.2739 1.06425C13.6524 1.06425 13.8614 0.927566 14.0139 0.827722C14.2688 0.660941 14.4695 0.661035 14.7243 0.827722C15.2049 1.14225 15.6117 1.12674 16.1013 0.890628C16.1736 1.15135 16.0099 1.92858 14.9676 3.48043C14.45 3.47161 13.6989 3.97997 11.5726 3.50677C10.5325 1.93486 10.3717 1.15008 10.4444 0.887441ZM22.6827 18.6057L16.1421 22.7503C15.5776 23.108 14.9258 23.2971 14.2575 23.2971H9.0128C8.5921 23.2971 8.17885 23.2227 7.78454 23.0759L4.01939 21.6745V17.8891C4.01939 17.6949 3.86204 17.5376 3.66793 17.5376C3.47382 17.5376 3.31646 17.6949 3.31646 17.8891V22.5248C3.31646 22.6996 3.17419 22.8418 2.99939 22.8418H1.38577C1.21093 22.8418 1.06871 22.6996 1.06871 22.5248V14.3383C1.06871 14.1635 1.21093 14.0213 1.38577 14.0213H2.99935C3.17419 14.0213 3.31641 14.1635 3.31641 14.3383V16.2458C3.31641 16.44 3.47377 16.5974 3.66788 16.5974C3.86199 16.5974 4.01935 16.44 4.01935 16.2458V15.2539C6.92705 15.2761 7.58082 16.8087 9.57291 17.0905C9.57591 17.091 9.57891 17.0913 9.58191 17.0917L13.4705 17.5394C14.1514 17.6377 14.6754 18.1799 14.7513 18.8625L14.7464 19.5311H11.1199C10.9258 19.5311 10.7684 19.6885 10.7684 19.8826C10.7684 20.0768 10.9258 20.2342 11.1199 20.2342H15.0953C15.1397 20.2342 15.191 20.2243 15.2356 20.2049C15.2428 20.2017 21.623 17.3926 21.6304 17.3893C22.0903 17.1849 22.5096 17.1557 22.794 17.5736C23.015 17.8983 22.9661 18.3373 22.6827 18.6057Z" fill="#EF7D30"/>
<path d="M13.2333 15.9479C13.4274 15.9479 13.5848 15.7905 13.5848 15.5964V15.0137C14.5716 14.8536 15.1474 14.0549 15.2726 13.3098C15.4291 12.379 14.9415 11.5695 14.0306 11.2475C13.8696 11.1906 13.7215 11.1362 13.5848 11.0836V8.84242C14.0006 8.91137 14.2503 9.12658 14.2685 9.14266C14.4113 9.2725 14.6322 9.26289 14.7632 9.12086C14.8949 8.97817 14.8859 8.7558 14.7432 8.62417C14.7184 8.6013 14.2879 8.21369 13.5848 8.13264V7.63277C13.5848 7.43861 13.4274 7.28125 13.2333 7.28125C13.0392 7.28125 12.8818 7.43861 12.8818 7.63277V8.16105C12.7971 8.17727 12.7102 8.19789 12.621 8.22475C12.0248 8.40433 11.5791 8.91559 11.4578 9.55895C11.3478 10.1428 11.5329 10.7043 11.9409 11.0242C12.1751 11.2079 12.47 11.3761 12.8818 11.5559V14.3357C12.4753 14.3185 12.2251 14.2421 11.7886 13.9566C11.6262 13.8504 11.4083 13.8958 11.302 14.0583C11.1958 14.2207 11.2413 14.4386 11.4037 14.5449C11.9775 14.9202 12.3611 15.0182 12.8818 15.0384V15.5964C12.8818 15.7905 13.0392 15.9479 13.2333 15.9479ZM12.3748 10.4711C12.1741 10.3137 12.0874 10.0141 12.1487 9.68917C12.2055 9.38786 12.4126 9.02177 12.8238 8.89792C12.8434 8.89202 12.8626 8.88695 12.8818 8.8818V10.7805C12.6713 10.6754 12.5063 10.5743 12.3748 10.4711ZM13.7963 11.9103C14.671 12.2194 14.6168 12.9705 14.5793 13.1933C14.5018 13.6546 14.1632 14.147 13.5848 14.2952V11.8341C13.6532 11.8592 13.7231 11.8844 13.7963 11.9103Z" fill="#EF7D30"/>
</g>
<defs>
<clipPath id="clip0">
<rect width="24" height="24" fill="white"/>
</clipPath>
</defs>
</svg>
