<svg width="60" height="60" viewBox="0 0 60 60" fill="none" xmlns="http://www.w3.org/2000/svg">
<g clip-path="url(#clip0)">
<path d="M42.6077 36.8542C42.0703 36.3729 41.2447 36.4198 40.766 36.9559C38.0451 39.9963 34.1216 41.7389 29.9986 41.7389C25.8768 41.7389 21.952 39.9963 19.2312 36.9559C18.7499 36.4198 17.9268 36.3729 17.3894 36.8542C16.852 37.3342 16.8077 38.1585 17.2877 38.6959C20.5029 42.2881 25.136 44.3476 29.9986 44.3476C34.8625 44.3476 39.4955 42.2868 42.7094 38.6959C43.1894 38.1585 43.1438 37.3342 42.6077 36.8542Z" fill="#EF7D30"/>
<path d="M29.999 0C13.4573 0 -0.000976562 13.4583 -0.000976562 30C-0.000976562 46.5417 13.4573 60 29.999 60C46.5408 60 59.999 46.5417 59.999 30C59.999 13.4583 46.5408 0 29.999 0ZM29.999 57.3913C14.8947 57.3913 2.60772 45.1044 2.60772 30C2.60772 14.8957 14.8947 2.6087 29.999 2.6087C45.1034 2.6087 57.3903 14.8957 57.3903 30C57.3903 45.1044 45.1034 57.3913 29.999 57.3913Z" fill="#EF7D30"/>
<path d="M40.4338 20.8691C36.8378 20.8691 33.9121 23.7948 33.9121 27.3909C33.9121 28.1109 34.4965 28.6952 35.2165 28.6952C35.9365 28.6952 36.5208 28.1109 36.5208 27.3909C36.5208 25.2335 38.2765 23.4778 40.4338 23.4778C42.5912 23.4778 44.3469 25.2335 44.3469 27.3909C44.3469 28.1109 44.9312 28.6952 45.6512 28.6952C46.3712 28.6952 46.9556 28.1109 46.9556 27.3909C46.9556 23.7948 44.0299 20.8691 40.4338 20.8691Z" fill="#EF7D30"/>
<path d="M23.4778 27.3909C23.4778 28.1109 24.0621 28.6952 24.7821 28.6952C25.5021 28.6952 26.0864 28.1109 26.0864 27.3909C26.0864 23.7948 23.1608 20.8691 19.5647 20.8691C15.9686 20.8691 13.043 23.7948 13.043 27.3909C13.043 28.1109 13.6273 28.6952 14.3473 28.6952C15.0673 28.6952 15.6517 28.1109 15.6517 27.3909C15.6517 25.2335 17.4073 23.4778 19.5647 23.4778C21.7221 23.4778 23.4778 25.2335 23.4778 27.3909Z" fill="#EF7D30"/>
</g>
<defs>
<clipPath id="clip0">
<rect width="60" height="60" fill="white" transform="translate(-0.000976562)"/>
</clipPath>
</defs>
</svg>
