<svg width="61" height="60" viewBox="0 0 61 60" fill="none" xmlns="http://www.w3.org/2000/svg">
<g clip-path="url(#clip0)">
<path d="M0.94873 59.0625H14.0737V53.4375H0.94873V59.0625ZM2.82373 55.3125H12.1987V57.1875H2.82373V55.3125Z" fill="#EF7D30"/>
<path d="M0.94873 51.5625H14.0737V45.9375H0.94873V51.5625ZM2.82373 47.8125H12.1987V49.6875H2.82373V47.8125Z" fill="#EF7D30"/>
<path d="M0.94873 44.0625H14.0737V38.4375H0.94873V44.0625ZM2.82373 40.3125H12.1987V42.1875H2.82373V40.3125Z" fill="#EF7D30"/>
<path d="M31.7156 30.9375C34.7184 27.7481 36.5737 23.4656 36.5737 18.75C36.5737 8.92781 28.5834 0.9375 18.7612 0.9375C8.93904 0.9375 0.94873 8.92781 0.94873 18.75C0.94873 28.2553 8.43842 36.0225 17.8237 36.5147V59.0625H59.0737V30.9375H31.7156ZM57.1987 34.6875H43.605L37.875 42.3281L32.1037 44.2519L29.3615 51.5625H24.6084L19.6987 49.1081V36.5147C20.7356 36.4603 21.75 36.3253 22.7334 36.1003C22.034 36.5831 21.5737 37.3884 21.5737 38.3006C21.5737 39.3206 22.14 40.2375 23.0531 40.6941L24.8803 41.6081C25.154 41.7441 25.3237 42.0187 25.3237 42.3244C25.3237 42.7659 24.9637 43.125 24.5231 43.125H24.2503C23.8087 43.125 23.4487 42.7659 23.4487 42.3244V42.1875H21.5737V42.3244C21.5737 43.5187 22.3659 44.5209 23.4487 44.8641V46.875H25.3237V44.8641C26.4065 44.5209 27.1987 43.5187 27.1987 42.3244C27.1987 41.3044 26.6325 40.3875 25.7194 39.9309L23.8922 39.0169C23.6184 38.8809 23.4487 38.6063 23.4487 38.3006C23.4487 37.8591 23.8087 37.5 24.2494 37.5H24.5222C24.9637 37.5 25.3237 37.8591 25.3237 38.3006V38.4375H27.1987V38.3006C27.1987 37.1063 26.4065 36.1041 25.3237 35.7609V35.2941C26.8894 34.6706 28.3425 33.8306 29.654 32.8125H57.1987V34.6875ZM25.3237 53.4375H29.0737V57.1875H25.3237V53.4375ZM30.9487 52.6706L33.5447 45.7481L34.6987 45.3628V57.1875H30.9487V52.6706ZM36.5737 44.7384L39.0225 43.9219L40.3237 42.1875V57.1875H36.5737V44.7384ZM42.1987 39.6872L44.5425 36.5625H45.9487V57.1875H42.1987V39.6872ZM47.8237 36.5625H51.5737V57.1875H47.8237V36.5625ZM2.87154 19.6875H6.63561C6.79498 21.0469 7.27029 22.3219 7.81779 23.4375H3.52967C3.16123 22.2422 2.94748 20.9831 2.87154 19.6875ZM6.62154 17.8125H2.87154C3.08811 14.1253 4.55623 10.7766 6.86623 8.17969L9.51654 10.83C7.87873 12.7397 6.82498 15.1566 6.62154 17.8125V17.8125ZM10.8422 9.50531L8.19186 6.85406C10.7887 4.54406 14.1365 3.07594 17.8237 2.85937V6.60938C15.1678 6.81375 12.7509 7.86656 10.8422 9.50531ZM19.6987 2.86031C23.3859 3.07594 26.7347 4.545 29.3306 6.855L26.6803 9.50531C24.7715 7.86656 22.3547 6.81375 19.6987 6.61031V2.86031ZM30.6562 8.17969C32.9662 10.7766 34.4344 14.1244 34.6509 17.8125H30.9009C30.6975 15.1566 29.6437 12.7397 28.0059 10.8309L30.6562 8.17969ZM30.8878 19.6875H34.6519C34.5759 20.9831 34.3622 22.2422 33.9937 23.4375H29.7065C30.2531 22.3219 30.7284 21.0469 30.8878 19.6875ZM4.25436 25.3125H11.0137L10.1981 23.9053C9.33279 22.4128 8.44873 20.6325 8.44873 18.75C8.44873 13.0641 13.0753 8.4375 18.7612 8.4375C24.4472 8.4375 29.0737 13.0641 29.0737 18.75C29.0737 20.6325 28.1897 22.4128 27.3253 23.9053L26.5097 25.3125H33.269C30.7612 30.8325 25.2084 34.6875 18.7612 34.6875C12.314 34.6875 6.76123 30.8325 4.25436 25.3125V25.3125ZM19.6987 51.2044L23.4487 53.0794V57.1875H19.6987V51.2044ZM53.4487 57.1875V36.5625H57.1987V57.1875H53.4487Z" fill="#EF7D30"/>
<path d="M18.7612 21.5629C20.3119 21.5629 21.5737 20.301 21.5737 18.7504V15.7776C21.5737 13.8173 20.8106 11.9741 19.424 10.5876L18.7612 9.92383L18.0984 10.5876C16.7119 11.9741 15.9487 13.8173 15.9487 15.7776V18.7504C15.9487 20.301 17.2106 21.5629 18.7612 21.5629ZM17.8237 15.7776C17.8237 14.6695 18.1519 13.611 18.7612 12.7138C19.3706 13.611 19.6987 14.6685 19.6987 15.7776V18.7504C19.6987 19.2669 19.2787 19.6879 18.7612 19.6879C18.2437 19.6879 17.8237 19.2669 17.8237 18.7504V15.7776Z" fill="#EF7D30"/>
<path d="M44.0737 6.5625H38.4487V12.1875H44.0737V6.5625ZM42.1987 10.3125H40.3237V8.4375H42.1987V10.3125Z" fill="#EF7D30"/>
<path d="M45.9487 6.5625H57.1987V8.4375H45.9487V6.5625Z" fill="#EF7D30"/>
<path d="M45.9487 10.3125H57.1987V12.1875H45.9487V10.3125Z" fill="#EF7D30"/>
<path d="M44.0737 14.0625H38.4487V19.6875H44.0737V14.0625ZM42.1987 17.8125H40.3237V15.9375H42.1987V17.8125Z" fill="#EF7D30"/>
<path d="M45.9487 14.0625H57.1987V15.9375H45.9487V14.0625Z" fill="#EF7D30"/>
<path d="M45.9487 17.8125H57.1987V19.6875H45.9487V17.8125Z" fill="#EF7D30"/>
<path d="M44.0737 21.5625H38.4487V27.1875H44.0737V21.5625ZM42.1987 25.3125H40.3237V23.4375H42.1987V25.3125Z" fill="#EF7D30"/>
<path d="M45.9487 21.5625H57.1987V23.4375H45.9487V21.5625Z" fill="#EF7D30"/>
<path d="M45.9487 25.3125H57.1987V27.1875H45.9487V25.3125Z" fill="#EF7D30"/>
<path d="M25.8723 28.6358L24.7754 27.1143C23.0063 28.3883 20.927 29.0624 18.7613 29.0624C16.5957 29.0624 14.5163 28.3883 12.7473 27.1143L11.6504 28.6358C13.742 30.1414 16.2001 30.9374 18.7613 30.9374C21.3226 30.9374 23.7807 30.1414 25.8723 28.6358Z" fill="#EF7D30"/>
</g>
<defs>
<clipPath id="clip0">
<rect width="60" height="60" fill="white" transform="translate(0.0112305)"/>
</clipPath>
</defs>
</svg>
