<svg width="37" height="37" viewBox="0 0 37 37" fill="none" xmlns="http://www.w3.org/2000/svg">
<path d="M18.3358 22.1467C13.2623 22.1467 8.98145 22.9758 8.98145 26.1754C8.98145 29.3763 13.2899 30.1762 18.3358 30.1762C23.4093 30.1762 27.6901 29.3472 27.6901 26.1476C27.6901 22.9466 23.3816 22.1467 18.3358 22.1467Z" fill="white"/>
<path opacity="0.4" d="M18.3361 19.0983C21.7716 19.0983 24.5263 16.3278 24.5263 12.8726C24.5263 9.41603 21.7716 6.64682 18.3361 6.64682C14.9007 6.64682 12.146 9.41603 12.146 12.8726C12.146 16.3278 14.9007 19.0983 18.3361 19.0983Z" fill="white"/>
<path opacity="0.4" d="M31.7756 14.3222C32.6645 10.8259 30.0586 7.68588 26.7403 7.68588C26.3795 7.68588 26.0345 7.72561 25.6974 7.79315C25.6527 7.80375 25.6026 7.82626 25.5763 7.86599C25.546 7.91632 25.5684 7.98386 25.6013 8.02756C26.5981 9.43402 27.1709 11.1464 27.1709 12.9846C27.1709 14.746 26.6455 16.3882 25.7238 17.7509C25.629 17.8913 25.7132 18.0807 25.8805 18.1098C26.1122 18.1509 26.3492 18.1721 26.5915 18.1787C29.0078 18.2423 31.1765 16.6782 31.7756 14.3222Z" fill="white"/>
<path d="M34.3065 22.5541C33.8641 21.6058 32.7962 20.9556 31.1726 20.6364C30.4063 20.4484 28.3324 20.1835 26.4033 20.2192C26.3743 20.2232 26.3585 20.2431 26.3559 20.2563C26.3519 20.2749 26.3598 20.3067 26.398 20.3265C27.2895 20.7702 30.7355 22.6997 30.3023 26.7695C30.2838 26.9456 30.4247 27.0979 30.5998 27.0714C31.4478 26.9496 33.6297 26.4781 34.3065 25.0094C34.6805 24.2333 34.6805 23.3315 34.3065 22.5541Z" fill="white"/>
<path opacity="0.4" d="M11.1237 7.79358C10.7879 7.72472 10.4416 7.68631 10.0808 7.68631C6.76257 7.68631 4.15668 10.8263 5.04682 14.3226C5.64463 16.6786 7.81335 18.2427 10.2296 18.1791C10.4719 18.1725 10.7102 18.15 10.9407 18.1102C11.1079 18.0811 11.1922 17.8917 11.0974 17.7513C10.1756 16.3873 9.65024 14.7464 9.65024 12.985C9.65024 11.1455 10.2244 9.43312 11.2211 8.02799C11.2527 7.98429 11.2764 7.91675 11.2448 7.86642C11.2185 7.82537 11.1698 7.80418 11.1237 7.79358Z" fill="white"/>
<path d="M5.64843 20.636C4.02485 20.9552 2.95827 21.6055 2.51583 22.5537C2.14056 23.3311 2.14056 24.233 2.51583 25.0103C3.19265 26.4777 5.37454 26.9505 6.22254 27.071C6.39767 27.0975 6.53725 26.9465 6.51881 26.7691C6.08559 22.7007 9.53158 20.7711 10.4243 20.3275C10.4612 20.3063 10.4691 20.2758 10.4652 20.2559C10.4625 20.2427 10.448 20.2228 10.4191 20.2202C8.4887 20.1831 6.4161 20.448 5.64843 20.636Z" fill="white"/>
</svg>
