<svg width="111" height="50" viewBox="0 0 111 50" fill="none" xmlns="http://www.w3.org/2000/svg">
<path d="M55.5001 3.53394L3.34521 13.6564V32.175L55.5001 46.439L107.655 32.1957V13.6768L55.5001 3.53394Z" fill="#2A2223"/>
<path d="M55.4995 49.9995L0 34.8207V10.8026L55.5005 0.0311279L111 10.8247V34.8425L55.4995 49.9995ZM6.69059 29.5284L55.5005 42.8789L104.309 29.548V16.5283L55.4995 7.03582L6.69059 16.509V29.5284Z" fill="#2A2223"/>
<path d="M3.34521 14.1685L8.41231 13.2105C10.8073 12.7279 13.2565 14.1878 13.2545 16.8751C13.2545 21.3018 13.2545 25.7282 13.2545 30.1543C13.2579 32.8728 10.7458 34.102 8.41266 33.4554L3.34521 32.1174V14.1685ZM8.41197 30.6688C9.12541 30.8198 9.99143 30.4507 9.98836 29.5942C9.98836 25.4594 9.98836 21.3248 9.98836 17.1904C9.98836 16.3388 9.13497 15.9328 8.41197 16.0294L6.61029 16.2563V30.3071L8.41197 30.6688Z" fill="white"/>
<path d="M18.6977 11.266L23.7654 10.308C26.7656 9.73626 28.6089 12.6135 28.6059 15.3924V19.2997C28.5666 20.8533 28.1689 22.4252 27.1039 23.5802C27.7183 24.6531 27.9733 25.8278 28.0047 27.064V38.6305L24.7393 37.768C24.7393 34.1082 24.7393 30.4485 24.7393 26.789C24.7639 25.884 24.0723 25.1016 23.2005 25.0394L21.9617 24.9692C21.9617 28.9909 21.9617 33.0128 21.9617 37.0347L18.6963 36.1719C18.6967 27.8699 18.6972 19.568 18.6977 11.266ZM23.7648 21.2396C24.6806 21.2164 25.365 20.3346 25.3415 19.4173V15.7078C25.3459 14.8108 24.6929 13.975 23.7651 14.0955L21.9631 14.3224V21.2529L23.7648 21.2396Z" fill="white"/>
<path d="M34.5361 38.5279C33.6069 36.5209 33.6321 34.1637 33.7107 31.9088C34.7832 32.1093 35.8612 32.2751 36.9389 32.4356C36.7866 33.5004 36.6607 34.5395 36.8634 35.5706C37.017 36.3516 37.6281 37.5916 38.5525 37.6074C39.2352 37.6201 39.5632 36.6782 39.6789 36.1595C39.9558 34.9139 39.6759 33.4687 39.4915 32.2126C39.3103 30.9771 38.9198 29.7325 38.4408 28.5845C37.8421 27.1485 36.9996 25.7771 36.264 24.378C34.663 21.393 33.7625 18.2446 33.7499 14.8459C33.738 11.674 34.8979 7.92758 38.3674 7.27964C42.2179 6.56112 42.9542 10.9671 42.9839 13.9472V15.084L39.7933 15.3484V13.9851C39.7745 13.0721 39.7182 11.4387 38.4422 11.6038C37.2345 11.76 37.1331 13.3 37.1283 14.2538C37.1164 16.5596 37.5676 18.8852 38.6303 20.9761C38.9842 21.5879 39.3344 22.2019 39.681 22.8181C40.4299 24.0823 41.099 25.3638 41.5953 26.7555C42.5668 29.6244 43.0218 32.6519 43.0208 35.6605C43.0208 37.54 42.9109 39.8835 41.5188 41.3071C40.6402 42.2058 39.3195 42.366 38.178 42.0095C36.5251 41.4971 35.2352 40.039 34.5361 38.5279Z" fill="white"/>
<path d="M59.2338 27.9921C58.5035 33.8381 57.7898 39.6866 57.0928 45.5375C56.5975 45.6682 56.012 45.9171 55.4976 45.9161C54.9832 45.915 54.4008 45.6675 53.9025 45.5354C53.1938 39.6629 52.4688 33.7923 51.7273 27.9236V44.8327L48.4619 43.9726C48.4633 31.1945 48.4645 18.4164 48.4657 5.63823L51.8062 5.0061C53.0822 14.4592 54.3074 23.9196 55.4819 33.3873C56.6872 23.9229 57.9093 14.461 59.2003 5.00821L62.5023 5.63472L62.4985 44.1686L59.2331 45.0346C59.2331 39.3539 59.2333 33.673 59.2338 27.9921Z" fill="white"/>
<path d="M67.9409 35.7855L67.943 13.603C67.9952 10.8961 69.2906 6.52318 72.7479 7.20026C75.8536 7.81027 77.5904 11.6346 77.5904 14.5881L77.5887 34.0728C77.5887 37.095 75.8597 40.9278 72.7834 41.7637C69.3364 42.6967 67.9931 38.5096 67.9409 35.7855ZM74.3222 34.6515V14.2538C74.341 13.2764 73.7655 12.0733 72.7459 11.9008C71.6634 11.7193 71.2596 13.1015 71.2067 13.9345C71.2067 21.0242 71.2061 28.1139 71.205 35.2036C71.2586 36.0464 71.6914 37.3809 72.7814 37.1133C73.7911 36.8668 74.3397 35.645 74.3222 34.6529V34.6515Z" fill="white"/>
<path d="M83.0327 9.52454L86.2985 10.1433C86.2985 13.2906 86.2985 16.438 86.2985 19.5856C87.5891 16.6602 88.9443 13.7665 90.3913 10.9184L94.0698 11.6151C92.162 15.0918 90.4173 18.6546 88.7767 22.2714C90.589 26.7753 92.534 31.2206 94.7071 35.5535L91.1034 36.5038C89.5953 33.2673 88.1927 29.9823 86.8621 26.6647C86.6734 27.117 86.4857 27.5697 86.2988 28.0227V37.8583L83.0331 38.7243L83.0327 9.52454Z" fill="white"/>
<path d="M99.3977 12.6251L107.655 14.1879V16.6883L102.663 16.0562V21.942L105.929 21.9237V24.5025L102.663 24.7234V30.6728L107.655 29.6677V32.1382L99.397 34.3156C99.3974 27.0857 99.3977 19.8555 99.3977 12.6251Z" fill="white"/>
<path d="M55.5002 0C55.563 0.580856 55.6046 1.16136 55.6418 1.74222C55.679 2.32307 55.7053 2.90358 55.7275 3.48408C55.7698 4.64556 55.7907 5.80704 55.79 6.96851C55.7893 8.12999 55.7687 9.29135 55.7282 10.4526C55.706 11.0331 55.679 11.614 55.6425 12.1945C55.6241 12.4849 55.6043 12.7753 55.5811 13.0657C55.5578 13.3562 55.5316 13.6463 55.5002 13.9367C55.4685 13.6461 55.4416 13.3558 55.4193 13.0657C55.3957 12.7753 55.3762 12.4849 55.3575 12.1945C55.3213 11.614 55.294 11.0331 55.2718 10.4526C55.2295 9.29135 55.2089 8.12999 55.21 6.96851C55.2111 5.80704 55.2321 4.64556 55.2728 3.48408C55.2947 2.90358 55.322 2.32272 55.3582 1.74222C55.3943 1.16171 55.4363 0.580856 55.5002 0Z" fill="white"/>
<path d="M30.2935 25.131L33.0994 24.9867C33.0994 25.9969 33.0994 27.0073 33.0994 28.0177L30.2935 27.8734V25.131Z" fill="white"/>
</svg>
